<svg xmlns="http://www.w3.org/2000/svg" xmlns:xlink="http://www.w3.org/1999/xlink">
  <!-- To add a new symbol to this sprite:
   - Create a new symbol markup
   - Paste the content of the svg
   - Paste the viewBox content of the svg in the symbol markup
   - assign an id to symbol
   - call this svg via:
    <svg id="logo">
      <use href='images/sprite.svg#mynewid' />
    </svg>
  
  -->

  <symbol id="angle-double-down" class="fontawesome regular" viewBox="0 0 320 512">
    <path d="M151.5 427.8L3.5 281c-4.7-4.7-4.7-12.3 0-17l19.8-19.8c4.7-4.7 12.3-4.7 17 0L160 362.7l119.7-118.5c4.7-4.7 12.3-4.7 17 0l19.8 19.8c4.7 4.7 4.7 12.3 0 17l-148 146.8c-4.7 4.7-12.3 4.7-17 0zm17-160l148-146.8c4.7-4.7 4.7-12.3 0-17l-19.8-19.8c-4.7-4.7-12.3-4.7-17 0L160 202.7 40.3 84.2c-4.7-4.7-12.3-4.7-17 0L3.5 104c-4.7 4.7-4.7 12.3 0 17l148 146.8c4.7 4.7 12.3 4.7 17 0z"></path>
  </symbol>


  <symbol id="angle-double-right" class="fontawesome regular" viewBox="0 0 384 512">
    <path d="M363.8 264.5L217 412.5c-4.7 4.7-12.3 4.7-17 0l-19.8-19.8c-4.7-4.7-4.7-12.3 0-17L298.7 256 180.2 136.3c-4.7-4.7-4.7-12.3 0-17L200 99.5c4.7-4.7 12.3-4.7 17 0l146.8 148c4.7 4.7 4.7 12.3 0 17zm-160-17L57 99.5c-4.7-4.7-12.3-4.7-17 0l-19.8 19.8c-4.7 4.7-4.7 12.3 0 17L138.7 256 20.2 375.7c-4.7 4.7-4.7 12.3 0 17L40 412.5c4.7 4.7 12.3 4.7 17 0l146.8-148c4.7-4.7 4.7-12.3 0-17z"></path>
  </symbol>

  <symbol id="pencil-2" class="twemoji" viewBox="0 0 36 36">
    <path fill="#D99E82" d="M35.222 33.598c-.647-2.101-1.705-6.059-2.325-7.566-.501-1.216-.969-2.438-1.544-3.014-.575-.575-1.553-.53-2.143.058 0 0-2.469 1.675-3.354 2.783-1.108.882-2.785 3.357-2.785 3.357-.59.59-.635 1.567-.06 2.143.576.575 1.798 1.043 3.015 1.544 1.506.62 5.465 1.676 7.566 2.325.359.11 1.74-1.271 1.63-1.63z"/><path fill="#EA596E" d="M13.643 5.308c1.151 1.151 1.151 3.016 0 4.167l-4.167 4.168c-1.151 1.15-3.018 1.15-4.167 0L1.141 9.475c-1.15-1.151-1.15-3.016 0-4.167l4.167-4.167c1.15-1.151 3.016-1.151 4.167 0l4.168 4.167z"/><path fill="#FFCC4D" d="M31.353 23.018l-4.17 4.17-4.163 4.165L7.392 15.726l8.335-8.334 15.626 15.626z"/><path fill="#292F33" d="M32.078 34.763s2.709 1.489 3.441.757c.732-.732-.765-3.435-.765-3.435s-2.566.048-2.676 2.678z"/><path fill="#CCD6DD" d="M2.183 10.517l8.335-8.335 5.208 5.209-8.334 8.335z"/><path fill="#99AAB5" d="M3.225 11.558l8.334-8.334 1.042 1.042L4.267 12.6zm2.083 2.086l8.335-8.335 1.042 1.042-8.335 8.334z"/>
  </symbol>


</svg>
