<svg xmlns="http://www.w3.org/2000/svg" xmlns:xlink="http://www.w3.org/1999/xlink">
  <!-- To add a new symbol to this sprite:
   - Create a new symbol markup
   - Paste the content of the svg
   - Paste the viewBox content of the svg in the symbol markup
   - assign an id to symbol
   - call this svg via:
    <svg id="logo">
      <use href='images/sprite.svg#mynewid' />
    </svg>
  
  -->

  <symbol id="angle-double-down" class="fontawesome regular" viewBox="0 0 320 512">
    <path d="M151.5 427.8L3.5 281c-4.7-4.7-4.7-12.3 0-17l19.8-19.8c4.7-4.7 12.3-4.7 17 0L160 362.7l119.7-118.5c4.7-4.7 12.3-4.7 17 0l19.8 19.8c4.7 4.7 4.7 12.3 0 17l-148 146.8c-4.7 4.7-12.3 4.7-17 0zm17-160l148-146.8c4.7-4.7 4.7-12.3 0-17l-19.8-19.8c-4.7-4.7-12.3-4.7-17 0L160 202.7 40.3 84.2c-4.7-4.7-12.3-4.7-17 0L3.5 104c-4.7 4.7-4.7 12.3 0 17l148 146.8c4.7 4.7 12.3 4.7 17 0z"></path>
  </symbol>


  <symbol id="angle-double-right" class="fontawesome regular" viewBox="0 0 384 512">
    <path d="M363.8 264.5L217 412.5c-4.7 4.7-12.3 4.7-17 0l-19.8-19.8c-4.7-4.7-4.7-12.3 0-17L298.7 256 180.2 136.3c-4.7-4.7-4.7-12.3 0-17L200 99.5c4.7-4.7 12.3-4.7 17 0l146.8 148c4.7 4.7 4.7 12.3 0 17zm-160-17L57 99.5c-4.7-4.7-12.3-4.7-17 0l-19.8 19.8c-4.7 4.7-4.7 12.3 0 17L138.7 256 20.2 375.7c-4.7 4.7-4.7 12.3 0 17L40 412.5c4.7 4.7 12.3 4.7 17 0l146.8-148c4.7-4.7 4.7-12.3 0-17z"></path>
  </symbol>


  <symbol id="edit" viewBox="0 0 576 512">
    <path d="M402.3 344.9l32-32c5-5 13.7-1.5 13.7 5.7V464c0 26.5-21.5 48-48 48H48c-26.5 0-48-21.5-48-48V112c0-26.5 21.5-48 48-48h273.5c7.1 0 10.7 8.6 5.7 13.7l-32 32c-1.5 1.5-3.5 2.3-5.7 2.3H48v352h352V350.5c0-2.1.8-4.1 2.3-5.6zm156.6-201.8L296.3 405.7l-90.4 10c-26.2 2.9-48.5-19.2-45.6-45.6l10-90.4L432.9 17.1c22.9-22.9 59.9-22.9 82.7 0l43.2 43.2c22.9 22.9 22.9 60 .1 82.8zM460.1 174L402 115.9 216.2 301.8l-7.3 65.3 65.3-7.3L460.1 174zm64.8-79.7l-43.2-43.2c-4.1-4.1-10.8-4.1-14.8 0L436 82l58.1 58.1 30.9-30.9c4-4.2 4-10.8-.1-14.9z"></path>
  </symbol>


  <symbol id="plus-square" viewBox="0 0 448 512">
    <path d="M352 240v32c0 6.6-5.4 12-12 12h-88v88c0 6.6-5.4 12-12 12h-32c-6.6 0-12-5.4-12-12v-88h-88c-6.6 0-12-5.4-12-12v-32c0-6.6 5.4-12 12-12h88v-88c0-6.6 5.4-12 12-12h32c6.6 0 12 5.4 12 12v88h88c6.6 0 12 5.4 12 12zm96-160v352c0 26.5-21.5 48-48 48H48c-26.5 0-48-21.5-48-48V80c0-26.5 21.5-48 48-48h352c26.5 0 48 21.5 48 48zm-48 346V86c0-3.3-2.7-6-6-6H54c-3.3 0-6 2.7-6 6v340c0 3.3 2.7 6 6 6h340c3.3 0 6-2.7 6-6z"></path>
  </symbol>

  <symbol id="times-circle-regular" viewBox="0 0 512 512">
    <path d="M256 8C119 8 8 119 8 256s111 248 248 248 248-111 248-248S393 8 256 8zm0 448c-110.5 0-200-89.5-200-200S145.5 56 256 56s200 89.5 200 200-89.5 200-200 200zm101.8-262.2L295.6 256l62.2 62.2c4.7 4.7 4.7 12.3 0 17l-22.6 22.6c-4.7 4.7-12.3 4.7-17 0L256 295.6l-62.2 62.2c-4.7 4.7-12.3 4.7-17 0l-22.6-22.6c-4.7-4.7-4.7-12.3 0-17l62.2-62.2-62.2-62.2c-4.7-4.7-4.7-12.3 0-17l22.6-22.6c4.7-4.7 12.3-4.7 17 0l62.2 62.2 62.2-62.2c4.7-4.7 12.3-4.7 17 0l22.6 22.6c4.7 4.7 4.7 12.3 0 17z"></path>
  </symbol>

  <symbol id="times-circle-solid" viewBox="0 0 512 512">
    <path d="M256 8C119 8 8 119 8 256s111 248 248 248 248-111 248-248S393 8 256 8zm121.6 313.1c4.7 4.7 4.7 12.3 0 17L338 377.6c-4.7 4.7-12.3 4.7-17 0L256 312l-65.1 65.6c-4.7 4.7-12.3 4.7-17 0L134.4 338c-4.7-4.7-4.7-12.3 0-17l65.6-65-65.6-65.1c-4.7-4.7-4.7-12.3 0-17l39.6-39.6c4.7-4.7 12.3-4.7 17 0l65 65.7 65.1-65.6c4.7-4.7 12.3-4.7 17 0l39.6 39.6c4.7 4.7 4.7 12.3 0 17L312 256l65.6 65.1z"></path>
  </symbol>

</svg>
